<svg xmlns="http://www.w3.org/2000/svg" width="16.098" height="19.813" viewBox="0 0 16.098 19.813">
  <g id="deletar" transform="translate(-48)">
    <path id="Caminho_776" data-name="Caminho 776" d="M62.55,2.477H59.145V1.857A1.86,1.86,0,0,0,57.287,0H54.811a1.86,1.86,0,0,0-1.857,1.857v.619H49.548A1.55,1.55,0,0,0,48,4.024V6.191a.619.619,0,0,0,.619.619h.338l.535,11.233a1.855,1.855,0,0,0,1.855,1.769h9.4a1.855,1.855,0,0,0,1.855-1.769L63.14,6.811h.338a.619.619,0,0,0,.619-.619V4.024A1.55,1.55,0,0,0,62.55,2.477Zm-8.358-.619a.62.62,0,0,1,.619-.619h2.477a.62.62,0,0,1,.619.619v.619H54.191ZM49.238,4.024a.31.31,0,0,1,.31-.31h13a.31.31,0,0,1,.31.31V5.572H49.238Zm12.13,13.96a.618.618,0,0,1-.618.59h-9.4a.618.618,0,0,1-.618-.59L50.2,6.811H61.9Z" fill="#808285"/>
    <path id="Caminho_777" data-name="Caminho 777" d="M240.619,217.287a.619.619,0,0,0,.619-.619v-8.049a.619.619,0,0,0-1.238,0v8.049A.619.619,0,0,0,240.619,217.287Z" transform="translate(-184.57 -199.951)" fill="#808285"/>
    <path id="Caminho_778" data-name="Caminho 778" d="M320.619,217.287a.619.619,0,0,0,.619-.619v-8.049a.619.619,0,0,0-1.238,0v8.049A.619.619,0,0,0,320.619,217.287Z" transform="translate(-261.475 -199.951)" fill="#808285"/>
    <path id="Caminho_779" data-name="Caminho 779" d="M160.619,217.287a.619.619,0,0,0,.619-.619v-8.049a.619.619,0,0,0-1.238,0v8.049A.619.619,0,0,0,160.619,217.287Z" transform="translate(-107.666 -199.951)" fill="#808285"/>
  </g>
</svg>
