<svg xmlns="http://www.w3.org/2000/svg" id="ver" width="24" height="24" viewBox="0 0 24 24">
    <path id="Caminho_404" fill="none" d="M0 0h24v24H0z" data-name="Caminho 404"/>
    <path id="Caminho_405" fill="#888888" d="M9.342 18.782l-1.931-.518.789-2.939a10.988 10.988 0 0 1-3.237-1.872l-2.155 2.154-1.415-1.415 2.154-2.153a10.957 10.957 0 0 1-2.371-5.07l1.968-.359a9 9 0 0 0 17.712 0l1.968.358a10.957 10.957 0 0 1-2.37 5.071l2.153 2.153-1.415 1.415-2.153-2.154a10.988 10.988 0 0 1-3.239 1.872l.787 2.94-1.931.517-.788-2.94a11.072 11.072 0 0 1-3.74 0l-.788 2.94z" data-name="Caminho 405"/>
</svg>
