<svg xmlns="http://www.w3.org/2000/svg" id="ver" width="24" height="24" viewBox="0 0 20.646 20.646">
    <path id="Caminho_406" fill="none" d="M0 0h20.646v20.646H0z" data-name="Caminho 406"/>
    <path id="Caminho_407" fill="#666666" opacity="0.7" d="M10.488 3a9.467 9.467 0 0 1 9.312 7.742 9.465 9.465 0 0 1-18.615 0A9.466 9.466 0 0 1 10.488 3zm0 13.764a7.746 7.746 0 0 0 7.55-6.02 7.747 7.747 0 0 0-15.1 0 7.747 7.747 0 0 0 7.551 6.021zm0-2.151a3.871 3.871 0 1 1 3.871-3.871 3.871 3.871 0 0 1-3.871 3.872zm0-1.721a2.151 2.151 0 1 0-2.151-2.151 2.151 2.151 0 0 0 2.151 2.152z" data-name="Caminho 407" transform="translate(-.165 -.419)"/>
</svg>
